#!OML:ASF F:\VICON\USERDATA\INSTALL\rory3\rory3.ASF
:FULLY-SPECIFIED
:DEGREES
848
root 1.39828 11.7589 -2.20436 17.2211 -4.78711 -0.699007
lowerback 66.3298 1.99969 -3.632
upperback -2.7962 -0.245152 0.911158
thorax -26.7491 0.380541 2.86233
lowerneck -26.1014 -2.06373 -4.29971
upperneck 7.83631 -1.82875 3.36823
head 6.58246 -0.711145 1.56203
rclavicle -7.95139e-015 1.59028e-015
rhumerus 19.1909 30.8021 -64.9747
rradius 36.6068
rwrist 21.7926
rhand -29.5845 -57.3018
rfingers 7.12502
rthumb -2.91621 -807.262
lclavicle -7.95139e-015 1.59028e-015
lhumerus 25.2886 -28.7351 57.7921
lradius 35.3492
lwrist -6.04765
lhand -41.0055 -47.7805
lfingers 7.12502
lthumb -13.9369 -18.2675
rfemur -87.3407 0.425088 22.1814
rtibia 110.737
rfoot -32.6107 -19.8798
rtoes -13.005
lfemur -84.8761 5.57025 -21.866
ltibia 109.35
lfoot -37.2944 12.8508
ltoes -13.754
849
root 1.39494 11.7406 -2.2441 15.7543 -4.9324 -0.470529
lowerback 69.8486 2.27419 -3.77318
upperback -3.21405 -0.254022 0.836972
thorax -27.2968 0.393401 2.80489
lowerneck -26.0612 -2.06418 -4.23693
upperneck 6.9477 -1.82928 3.31594
head 6.28159 -0.714107 1.53339
rclavicle -4.37326e-015 2.18663e-015
rhumerus 20.5497 29.9343 -64.7258
rradius 36.6898
rwrist 22.7882
rhand -29.6972 -58.1954
rfingers 7.12502
rthumb -3.02504 -808.154
lclavicle -4.37326e-015 2.18663e-015
lhumerus 26.9233 -28.5411 56.7135
lradius 35.0832
lwrist -6.27806
lhand -41.2748 -48.0601
lfingers 7.12502
lthumb -14.1964 -18.5652
rfemur -85.9989 0.118661 22.0823
rtibia 110.925
rfoot -32.6707 -19.7628
rtoes -13.2122
lfemur -83.4545 5.86023 -22.0883
ltibia 109.298
lfoot -37.1586 13.266
ltoes -14.5838
850
root 1.39033 11.7115 -2.2765 14.3775 -5.11585 -0.155723
lowerback 73.2186 2.59378 -3.98181
upperback -3.71152 -0.281905 0.780894
thorax -27.8562 0.41297 2.80452
lowerneck -26.5068 -2.05093 -4.18479
upperneck 6.59724 -1.78119 3.15016
head 6.22618 -0.70085 1.4753
rclavicle 4.37326e-015 -5.96354e-015
rhumerus 21.7185 28.9706 -64.6499
rradius 36.5589
rwrist 23.7651
rhand -30.0239 -58.6361
rfingers 7.12502
rthumb -3.34053 -808.59
lclavicle 4.37326e-015 -5.96354e-015
lhumerus 28.328 -28.3652 55.819
lradius 34.8856
lwrist -7.06061
lhand -41.1922 -47.3857
lfingers 7.12502
lthumb -14.1169 -17.8853
rfemur -84.8252 -0.137055 21.8405
rtibia 111.204
rfoot -32.9649 -19.5539
rtoes -13.3105
lfemur -82.0435 6.16582 -22.344
ltibia 109.432
lfoot -37.4884 12.8515
ltoes -13.5841
851
root 1.38832 11.6846 -2.30534 13.0569 -5.25623 0.201452
lowerback 76.4034 2.81292 -4.15775
upperback -4.2398 -0.418853 0.710656
thorax -28.3798 0.398786 2.83126
lowerneck -27.0646 -2.06434 -4.15001
upperneck 6.51445 -1.77007 3.03459
head 6.27679 -0.701064 1.43195
rclavicle 1.31198e-014 -1.21259e-014
rhumerus 22.8049 28.2878 -64.6338
rradius 36.3845
rwrist 23.9004
rhand -30.8146 -58.7995
rfingers 7.12502
rthumb -4.10408 -808.74
lclavicle 1.31198e-014 -1.21259e-014
lhumerus 29.4091 -28.1268 55.135
lradius 34.6873
lwrist -7.93113
lhand -40.8882 -46.1743
lfingers 7.12502
lthumb -13.8239 -16.6537
rfemur -83.6818 -0.411101 21.5134
rtibia 111.47
rfoot -33.3607 -19.2083
rtoes -13.1467
lfemur -80.6128 6.36038 -22.6341
ltibia 109.593
lfoot -37.9716 11.9592
ltoes -11.4603
852
root 1.39112 11.6684 -2.33086 11.7441 -5.31215 0.463695
lowerback 79.2573 2.84986 -4.14331
upperback -4.62124 -0.590451 0.610431
thorax -28.6404 0.343808 2.75916
lowerneck -27.2506 -2.09174 -4.18728
upperneck 6.1319 -1.78254 3.04819
head 6.17767 -0.705128 1.44014
rclavicle -5.56597e-015 4.17448e-015
rhumerus 24.0607 28.0633 -64.2947
rradius 36.425
rwrist 23.0809
rhand -31.1435 -59.5305
rfingers 7.12502
rthumb -4.42166 -809.464
lclavicle -5.56597e-015 4.17448e-015
lhumerus 30.5386 -28.0817 54.2527
lradius 34.319
lwrist -8.31043
lhand -41.4854 -45.4823
lfingers 7.12502
lthumb -14.3993 -16.0018
rfemur -82.3913 -0.698354 21.2818
rtibia 111.622
rfoot -33.5979 -19.1997
rtoes -13.2708
lfemur -79.1071 6.4132 -22.826
ltibia 109.606
lfoot -38.3858 11.8715
ltoes -10.5162
853
root 1.39579 11.665 -2.35208 10.4872 -5.3407 0.705601
lowerback 82.1818 2.89145 -4.10281
upperback -5.37094 -0.726259 0.567573
thorax -28.6093 0.285731 2.66906
lowerneck -27.2443 -2.00931 -4.08758
upperneck 5.57174 -1.67434 2.86161
head 5.98488 -0.666274 1.37615
rclavicle 9.14409e-015 1.27222e-014
rhumerus 25.5172 27.9038 -63.6979
rradius 36.254
rwrist 22.6934
rhand -31.4425 -59.882
rfingers 7.12502
rthumb -4.71043 -809.81
lclavicle 9.14409e-015 1.27222e-014
lhumerus 31.5364 -28.0303 53.4396
lradius 34.0339
lwrist -8.85302
lhand -42.3904 -44.8918
lfingers 7.12502
lthumb -15.2712 -15.4756
rfemur -81.0119 -0.970323 21.0376
rtibia 111.7
rfoot -33.8387 -19.3238
rtoes -13.0198
lfemur -77.5586 6.39025 -23.0319
ltibia 109.527
lfoot -38.7233 12.7991
ltoes -11.0322
854
root 1.39423 11.6601 -2.37694 9.33638 -5.36544 0.691773
lowerback 84.6701 3.08912 -4.11046
upperback -5.71709 -0.657504 0.660964
thorax -28.7486 0.3113 2.72929
lowerneck -27.2601 -1.8654 -3.93885
upperneck 5.13803 -1.47802 2.48082
head 5.81914 -0.60051 1.25326
rclavicle 3.97569e-016 -1.78906e-015
rhumerus 26.8176 27.6584 -63.2247
rradius 36.0771
rwrist 22.9135
rhand -31.4811 -60.119
rfingers 7.12502
rthumb -4.7477 -629.954
lclavicle 3.97569e-016 -1.78906e-015
lhumerus 32.2744 -27.9039 52.8116
lradius 34.1232
lwrist -8.64446
lhand -41.4533 -44.3478
lfingers 7.12502
lthumb -14.3684 -14.865
rfemur -79.7213 -0.960763 21.0398
rtibia 111.727
rfoot -34.2298 -19.0388
rtoes -12.0097
lfemur -76.3338 6.60835 -22.9643
ltibia 109.477
lfoot -38.6677 13.6305
ltoes -12.088
855
root 1.38984 11.6481 -2.4062 8.28707 -5.32609 0.455677
lowerback 87.051 3.33688 -4.05322
upperback -6.11824 -0.421647 0.882765
thorax -28.9702 0.385361 2.86066
lowerneck -27.3154 -1.79021 -3.96489
upperneck 4.83677 -1.33532 2.25111
head 5.72077 -0.55085 1.19864
rclavicle 6.36111e-015 -4.17448e-015
rhumerus 27.8417 27.5248 -62.8582
rradius 36.0545
rwrist 23.3563
rhand -31.2248 -60.7956
rfingers 7.12502
rthumb -4.50021 -629.272
lclavicle 6.36111e-015 -4.17448e-015
lhumerus 32.9029 -27.8117 52.3257
lradius 34.3136
lwrist -7.49725
lhand -39.7821 -44.4
lfingers 7.12502
lthumb -12.7578 -14.8097
rfemur -78.5833 -0.788159 21.3169
rtibia 111.664
rfoot -34.2417 -18.9645
rtoes -11.7451
lfemur -75.4218 6.91827 -22.6418
ltibia 109.523
lfoot -38.4663 14.0118
ltoes -12.7651
856
root 1.38855 11.6632 -2.42821 7.304 -5.27849 0.377325
lowerback 89.256 3.55762 -4.02851
upperback -6.50763 -0.244889 1.08423
thorax -29.1757 0.445494 3.01793
lowerneck -27.5839 -1.78967 -4.03112
upperneck 4.68362 -1.29492 2.21088
head 5.70624 -0.534347 1.20013
rclavicle 8.34896e-015 -1.39149e-014
rhumerus 28.8077 27.4884 -62.45
rradius 35.8619
rwrist 24.3494
rhand -31.0985 -60.978
rfingers 7.12502
rthumb -4.37824 -629.087
lclavicle 8.34896e-015 -1.39149e-014
lhumerus 33.4103 -27.845 51.9396
lradius 34.2041
lwrist -6.98388
lhand -39.5087 -44.4586
lfingers 7.12502
lthumb -12.4941 -14.8521
rfemur -77.3212 -0.810849 21.4349
rtibia 111.428
rfoot -34.2973 -19.0301
rtoes -11.5313
lfemur -74.2521 7.01245 -22.4767
ltibia 109.399
lfoot -38.4278 14.3111
ltoes -12.9916
857
root 1.38761 11.6831 -2.43985 6.42208 -5.29329 0.445034
lowerback 91.1713 3.78913 -4.07117
upperback -6.82156 -0.135754 1.22552
thorax -29.2913 0.488644 3.15692
lowerneck -27.8988 -1.82395 -4.14621
upperneck 4.50413 -1.30292 2.34439
head 5.69261 -0.526409 1.26085
rclavicle 1.43125e-014 -5.96354e-016
rhumerus 29.631 27.4099 -62.1239
rradius 35.6411
rwrist 25.6191
rhand -30.9411 -61.1101
rfingers 7.12502
rthumb -4.22624 -628.952
lclavicle 1.43125e-014 -5.96354e-016
lhumerus 33.7367 -27.9411 51.7009
lradius 33.9549
lwrist -7.29936
lhand -39.8359 -44.4079
lfingers 7.12502
lthumb -12.8096 -14.8209
rfemur -76.1315 -0.964997 21.3881
rtibia 111.235
rfoot -34.6517 -19.0172
rtoes -11.3362
lfemur -72.9927 7.05999 -22.4343
ltibia 109.214
lfoot -38.5472 14.3996
ltoes -12.877
858
root 1.38267 11.6645 -2.45331 5.61383 -5.34972 0.419756
lowerback 92.8963 4.08224 -4.10723
upperback -7.07736 0.0494562 1.37066
thorax -29.3437 0.547842 3.26378
lowerneck -27.7181 -1.62295 -4.0946
upperneck 4.13859 -1.00133 1.87276
head 5.53373 -0.41838 1.13375
rclavicle 1.23246e-014 -8.15017e-015
rhumerus 30.519 27.5433 -61.5883
rradius 35.4208
rwrist 26.3939
rhand -31.3319 -61.79
rfingers 7.12502
rthumb -4.6036 -628.28
lclavicle 1.23246e-014 -8.15017e-015
lhumerus 33.989 -27.887 51.6985
lradius 33.7654
lwrist -7.80719
lhand -40.2851 -44.8309
lfingers 7.12502
lthumb -13.2426 -15.2715
rfemur -75.3112 -0.944224 21.4656
rtibia 111.306
rfoot -34.8616 -19.0825
rtoes -11.5694
lfemur -72.1636 7.32585 -22.2793
ltibia 109.283
lfoot -38.6662 14.2182
ltoes -12.5258
